<svg xmlns="http://www.w3.org/2000/svg" viewBox="0 0 400 400" fill="none" stroke="currentColor">
  <g stroke-width="4" stroke-linecap="round" stroke-linejoin="round" opacity="0.85">
    <!-- Outer Tech Diamond/Shield -->
    <path d="M200 20 L360 180 L200 340 L40 180 Z" stroke-dasharray="1 8" stroke-width="3" />
    <path d="M200 40 L340 180 L200 320 L60 180 Z" />
    
    <!-- Central AI/Human Silhouette -->
    <circle cx="200" cy="140" r="40" />
    <path d="M130 250 C130 200 160 190 200 190 C240 190 270 200 270 250" />
    
    <!-- Left Circuit Node -->
    <circle cx="100" cy="180" r="8" />
    <path d="M108 180 L160 180" />
    <path d="M100 172 L100 140 L160 140" />

    <!-- Right Circuit Node -->
    <circle cx="300" cy="180" r="8" />
    <path d="M292 180 L240 180" />
    <path d="M300 172 L300 140 L240 140" />

    <!-- Bottom Data/Verification Check -->
    <circle cx="200" cy="280" r="24" />
    <path d="M190 280 L196 286 L210 272" stroke-width="5" />
    
    <!-- Connections -->
    <path d="M200 100 L200 40" />
    <path d="M200 256 L200 220" />
  </g>
</svg>
