<svg width="1200" height="800" viewBox="0 0 1200 800" xmlns="http://www.w3.org/2000/svg">
  <defs>
    <radialGradient id="meshGlow" cx="50%" cy="50%" r="50%">
      <stop offset="0%" stop-color="#4f46e5" stop-opacity="0.15" />
      <stop offset="100%" stop-color="#4f46e5" stop-opacity="0" />
    </radialGradient>
    <linearGradient id="lineGrad" x1="0" y1="0" x2="1" y2="1">
      <stop offset="0%" stop-color="#4f46e5" stop-opacity="0.8" />
      <stop offset="100%" stop-color="#818cf8" stop-opacity="0.2" />
    </linearGradient>
  </defs>
  
  <rect width="100%" height="100%" fill="url(#meshGlow)" />
  
  <g stroke="url(#lineGrad)" stroke-width="2" fill="none">
    <path d="M100,400 L300,200 L600,300 L900,100 L1100,400" />
    <path d="M100,400 L350,600 L600,300 L850,700 L1100,400" />
    <path d="M300,200 L350,600 M900,100 L850,700" />
  </g>
  
  <g fill="#4f46e5">
    <circle cx="100" cy="400" r="6" />
    <circle cx="300" cy="200" r="10" />
    <circle cx="350" cy="600" r="8" />
    <circle cx="600" cy="300" r="14" />
    <circle cx="900" cy="100" r="10" />
    <circle cx="850" cy="700" r="8" />
    <circle cx="1100" cy="400" r="6" />
  </g>
  
  <g fill="#818cf8" opacity="0.6">
    <circle cx="450" cy="250" r="4" />
    <circle cx="750" cy="200" r="5" />
    <circle cx="475" cy="450" r="4" />
    <circle cx="725" cy="500" r="5" />
    <path d="M300,200 L450,250 L600,300 M600,300 L750,200 L900,100" stroke="#818cf8" stroke-width="1" stroke-dasharray="4" />
    <path d="M350,600 L475,450 L600,300 M600,300 L725,500 L850,700" stroke="#818cf8" stroke-width="1" stroke-dasharray="4" />
  </g>
</svg>
