<svg width="512" height="512" viewBox="0 0 512 512" xmlns="http://www.w3.org/2000/svg">
  <!-- Flat Minimalist AI HR Logo - Icon Only -->
  <g transform="translate(64, 64) scale(0.75)">
    <!-- Base Shield -->
    <path d="M256,0 L512,110 L512,274 C512,410 398,512 256,512 C114,512 0,410 0,274 L0,110 L256,0 Z" 
          fill="none" stroke="#4f46e5" stroke-width="32" stroke-linejoin="round"/>
    
    <!-- Human Silhouette (Shoulders and Head Base) -->
    <path d="M128,420 C128,340 180,290 256,290 C332,290 384,340 384,420 L384,500 L128,500 Z" 
          fill="#4f46e5" opacity="0.9"/>
    <circle cx="256" cy="180" r="70" fill="#4f46e5"/>

    <!-- Neural Nodes & Connections -->
    <path d="M256,180 L140,120 M256,180 L350,80 M256,180 L390,200" 
          stroke="#818cf8" stroke-width="12" stroke-linecap="round"/>
    
    <circle cx="140" cy="120" r="16" fill="#818cf8"/>
    <circle cx="350" cy="80" r="20" fill="#818cf8"/>
    <circle cx="390" cy="200" r="14" fill="#818cf8"/>
  </g>
</svg>
